<mxfile host="app.diagrams.net" modified="2023-09-08T15:29:47.211Z" agent="Mozilla/5.0 (X11; Ubuntu; Linux x86_64; rv:109.0) Gecko/20100101 Firefox/116.0" etag="FHXmPPkpWLt4G6wm-5qu" version="21.6.8">
  <diagram name="Страница — 1" id="OLrh8bEomukfV1LnsMU-">
    <mxGraphModel dx="1240" dy="743" grid="1" gridSize="10" guides="1" tooltips="1" connect="1" arrows="1" fold="1" page="1" pageScale="1" pageWidth="827" pageHeight="1169" math="0" shadow="0">
      <root>
        <mxCell id="0" />
        <mxCell id="1" parent="0" />
        <mxCell id="Utry4LR7-DhywY59sBny-1" value="Составить заказ" style="ellipse;whiteSpace=wrap;html=1;" parent="1" vertex="1">
          <mxGeometry x="190" y="80" width="130" height="70" as="geometry" />
        </mxCell>
        <mxCell id="Utry4LR7-DhywY59sBny-2" value="Клиент" style="shape=umlActor;verticalLabelPosition=bottom;verticalAlign=top;html=1;outlineConnect=0;" parent="1" vertex="1">
          <mxGeometry x="424" y="90" width="30" height="60" as="geometry" />
        </mxCell>
        <mxCell id="aWrdAXhFoA1oylewdkiY-3" value="" style="endArrow=none;html=1;rounded=0;exitX=1;exitY=0.5;exitDx=0;exitDy=0;entryX=0.5;entryY=0.5;entryDx=0;entryDy=0;entryPerimeter=0;" edge="1" parent="1" source="Utry4LR7-DhywY59sBny-1" target="Utry4LR7-DhywY59sBny-2">
          <mxGeometry width="50" height="50" relative="1" as="geometry">
            <mxPoint x="400" y="210" as="sourcePoint" />
            <mxPoint x="430" y="120" as="targetPoint" />
          </mxGeometry>
        </mxCell>
        <mxCell id="aWrdAXhFoA1oylewdkiY-5" value="" style="endArrow=none;html=1;rounded=0;exitX=0.969;exitY=0.302;exitDx=0;exitDy=0;entryX=0.5;entryY=0.5;entryDx=0;entryDy=0;entryPerimeter=0;exitPerimeter=0;" edge="1" parent="1" source="aWrdAXhFoA1oylewdkiY-6" target="Utry4LR7-DhywY59sBny-2">
          <mxGeometry width="50" height="50" relative="1" as="geometry">
            <mxPoint x="320" y="190" as="sourcePoint" />
            <mxPoint x="450" y="160" as="targetPoint" />
          </mxGeometry>
        </mxCell>
        <mxCell id="aWrdAXhFoA1oylewdkiY-6" value="Разместить заказ" style="ellipse;whiteSpace=wrap;html=1;" vertex="1" parent="1">
          <mxGeometry x="200" y="170" width="120" height="70" as="geometry" />
        </mxCell>
        <mxCell id="aWrdAXhFoA1oylewdkiY-7" value="" style="endArrow=none;html=1;rounded=0;entryX=0.5;entryY=0.5;entryDx=0;entryDy=0;entryPerimeter=0;" edge="1" parent="1" target="Utry4LR7-DhywY59sBny-2">
          <mxGeometry width="50" height="50" relative="1" as="geometry">
            <mxPoint x="530" y="110" as="sourcePoint" />
            <mxPoint x="450" y="160" as="targetPoint" />
          </mxGeometry>
        </mxCell>
        <mxCell id="aWrdAXhFoA1oylewdkiY-10" value="Отменить заказ" style="ellipse;whiteSpace=wrap;html=1;" vertex="1" parent="1">
          <mxGeometry x="40" y="172.5" width="110" height="65" as="geometry" />
        </mxCell>
        <mxCell id="aWrdAXhFoA1oylewdkiY-11" value="" style="endArrow=classic;html=1;rounded=0;dashed=1;entryX=1;entryY=0.5;entryDx=0;entryDy=0;exitX=0;exitY=0.5;exitDx=0;exitDy=0;" edge="1" parent="1" source="aWrdAXhFoA1oylewdkiY-6" target="aWrdAXhFoA1oylewdkiY-10">
          <mxGeometry width="50" height="50" relative="1" as="geometry">
            <mxPoint x="310" y="280" as="sourcePoint" />
            <mxPoint x="430" y="250" as="targetPoint" />
          </mxGeometry>
        </mxCell>
        <mxCell id="aWrdAXhFoA1oylewdkiY-12" value="" style="endArrow=classic;html=1;rounded=0;exitX=0.058;exitY=0.757;exitDx=0;exitDy=0;dashed=1;exitPerimeter=0;entryX=0.683;entryY=0.011;entryDx=0;entryDy=0;entryPerimeter=0;" edge="1" parent="1" source="aWrdAXhFoA1oylewdkiY-6" target="aWrdAXhFoA1oylewdkiY-13">
          <mxGeometry width="50" height="50" relative="1" as="geometry">
            <mxPoint x="310" y="280" as="sourcePoint" />
            <mxPoint x="170" y="270" as="targetPoint" />
          </mxGeometry>
        </mxCell>
        <mxCell id="aWrdAXhFoA1oylewdkiY-13" value="Получить информацию об оплате" style="ellipse;whiteSpace=wrap;html=1;" vertex="1" parent="1">
          <mxGeometry x="80" y="260" width="110" height="70" as="geometry" />
        </mxCell>
        <mxCell id="aWrdAXhFoA1oylewdkiY-14" value="Оплатить счет" style="ellipse;whiteSpace=wrap;html=1;" vertex="1" parent="1">
          <mxGeometry x="530" y="80" width="100" height="60" as="geometry" />
        </mxCell>
        <mxCell id="aWrdAXhFoA1oylewdkiY-15" value="" style="endArrow=classic;html=1;rounded=0;dashed=1;exitX=1;exitY=0.5;exitDx=0;exitDy=0;entryX=-0.003;entryY=0.381;entryDx=0;entryDy=0;entryPerimeter=0;" edge="1" parent="1" source="aWrdAXhFoA1oylewdkiY-14" target="aWrdAXhFoA1oylewdkiY-16">
          <mxGeometry width="50" height="50" relative="1" as="geometry">
            <mxPoint x="600" y="140" as="sourcePoint" />
            <mxPoint x="680" y="120" as="targetPoint" />
          </mxGeometry>
        </mxCell>
        <mxCell id="aWrdAXhFoA1oylewdkiY-16" value="&lt;div&gt;Оставить отзыв&lt;/div&gt;" style="ellipse;whiteSpace=wrap;html=1;" vertex="1" parent="1">
          <mxGeometry x="680" y="90" width="100" height="60" as="geometry" />
        </mxCell>
        <mxCell id="aWrdAXhFoA1oylewdkiY-19" value="Повар" style="shape=umlActor;verticalLabelPosition=bottom;verticalAlign=top;html=1;outlineConnect=0;" vertex="1" parent="1">
          <mxGeometry x="424" y="250" width="30" height="60" as="geometry" />
        </mxCell>
        <mxCell id="aWrdAXhFoA1oylewdkiY-23" value="" style="endArrow=none;html=1;rounded=0;exitX=0.5;exitY=0;exitDx=0;exitDy=0;exitPerimeter=0;" edge="1" parent="1" source="aWrdAXhFoA1oylewdkiY-19">
          <mxGeometry width="50" height="50" relative="1" as="geometry">
            <mxPoint x="410" y="300" as="sourcePoint" />
            <mxPoint x="440" y="170" as="targetPoint" />
          </mxGeometry>
        </mxCell>
        <mxCell id="aWrdAXhFoA1oylewdkiY-24" value="Принять заказ" style="ellipse;whiteSpace=wrap;html=1;" vertex="1" parent="1">
          <mxGeometry x="230" y="280" width="100" height="62.5" as="geometry" />
        </mxCell>
        <mxCell id="aWrdAXhFoA1oylewdkiY-26" value="" style="endArrow=none;html=1;rounded=0;exitX=0.5;exitY=0.5;exitDx=0;exitDy=0;exitPerimeter=0;entryX=0.95;entryY=0.256;entryDx=0;entryDy=0;entryPerimeter=0;" edge="1" parent="1" source="aWrdAXhFoA1oylewdkiY-19" target="aWrdAXhFoA1oylewdkiY-24">
          <mxGeometry width="50" height="50" relative="1" as="geometry">
            <mxPoint x="400" y="240" as="sourcePoint" />
            <mxPoint x="260" y="311" as="targetPoint" />
          </mxGeometry>
        </mxCell>
        <mxCell id="aWrdAXhFoA1oylewdkiY-27" value="" style="endArrow=none;html=1;rounded=0;entryX=0.5;entryY=0.5;entryDx=0;entryDy=0;entryPerimeter=0;exitX=0.051;exitY=0.291;exitDx=0;exitDy=0;exitPerimeter=0;" edge="1" parent="1" source="aWrdAXhFoA1oylewdkiY-28" target="aWrdAXhFoA1oylewdkiY-19">
          <mxGeometry width="50" height="50" relative="1" as="geometry">
            <mxPoint x="560" y="300" as="sourcePoint" />
            <mxPoint x="470" y="280" as="targetPoint" />
          </mxGeometry>
        </mxCell>
        <mxCell id="aWrdAXhFoA1oylewdkiY-28" value="Сообщить о готовности заказа" style="ellipse;whiteSpace=wrap;html=1;" vertex="1" parent="1">
          <mxGeometry x="540" y="280" width="100" height="60" as="geometry" />
        </mxCell>
        <mxCell id="aWrdAXhFoA1oylewdkiY-40" value="" style="endArrow=none;html=1;rounded=0;entryX=0.5;entryY=0;entryDx=0;entryDy=0;entryPerimeter=0;" edge="1" parent="1" target="aWrdAXhFoA1oylewdkiY-42">
          <mxGeometry width="50" height="50" relative="1" as="geometry">
            <mxPoint x="439" y="330" as="sourcePoint" />
            <mxPoint x="560" y="310" as="targetPoint" />
          </mxGeometry>
        </mxCell>
        <mxCell id="aWrdAXhFoA1oylewdkiY-42" value="&lt;div&gt;Администратор&lt;/div&gt;&lt;div&gt;&lt;br&gt;&lt;/div&gt;" style="shape=umlActor;verticalLabelPosition=bottom;verticalAlign=top;html=1;outlineConnect=0;" vertex="1" parent="1">
          <mxGeometry x="424" y="410" width="30" height="60" as="geometry" />
        </mxCell>
        <mxCell id="aWrdAXhFoA1oylewdkiY-46" value="" style="endArrow=none;html=1;rounded=0;exitX=0.5;exitY=0.5;exitDx=0;exitDy=0;exitPerimeter=0;" edge="1" parent="1" source="aWrdAXhFoA1oylewdkiY-42">
          <mxGeometry width="50" height="50" relative="1" as="geometry">
            <mxPoint x="440" y="460" as="sourcePoint" />
            <mxPoint x="340" y="470" as="targetPoint" />
          </mxGeometry>
        </mxCell>
        <mxCell id="aWrdAXhFoA1oylewdkiY-47" value="Составить отчет" style="ellipse;whiteSpace=wrap;html=1;" vertex="1" parent="1">
          <mxGeometry x="230" y="450" width="110" height="60" as="geometry" />
        </mxCell>
        <mxCell id="aWrdAXhFoA1oylewdkiY-48" value="" style="endArrow=classic;html=1;rounded=0;exitX=-0.004;exitY=0.643;exitDx=0;exitDy=0;dashed=1;exitPerimeter=0;" edge="1" parent="1" source="aWrdAXhFoA1oylewdkiY-47">
          <mxGeometry width="50" height="50" relative="1" as="geometry">
            <mxPoint x="230" y="520" as="sourcePoint" />
            <mxPoint x="160" y="520" as="targetPoint" />
          </mxGeometry>
        </mxCell>
        <mxCell id="aWrdAXhFoA1oylewdkiY-49" value="Составить отчет о производительности персонала" style="ellipse;whiteSpace=wrap;html=1;" vertex="1" parent="1">
          <mxGeometry x="50" y="520" width="160" height="70" as="geometry" />
        </mxCell>
        <mxCell id="aWrdAXhFoA1oylewdkiY-50" value="" style="endArrow=none;html=1;rounded=0;exitX=0.5;exitY=0.5;exitDx=0;exitDy=0;exitPerimeter=0;" edge="1" parent="1" source="aWrdAXhFoA1oylewdkiY-42">
          <mxGeometry width="50" height="50" relative="1" as="geometry">
            <mxPoint x="530" y="460" as="sourcePoint" />
            <mxPoint x="540" y="470" as="targetPoint" />
          </mxGeometry>
        </mxCell>
        <mxCell id="aWrdAXhFoA1oylewdkiY-51" value="&lt;div&gt;Управление персоналом&lt;/div&gt;" style="ellipse;whiteSpace=wrap;html=1;" vertex="1" parent="1">
          <mxGeometry x="530" y="460" width="110" height="60" as="geometry" />
        </mxCell>
        <mxCell id="aWrdAXhFoA1oylewdkiY-54" value="" style="endArrow=classic;html=1;rounded=0;exitX=1;exitY=1;exitDx=0;exitDy=0;dashed=1;" edge="1" parent="1" source="aWrdAXhFoA1oylewdkiY-51">
          <mxGeometry width="50" height="50" relative="1" as="geometry">
            <mxPoint x="530" y="460" as="sourcePoint" />
            <mxPoint x="680" y="560" as="targetPoint" />
          </mxGeometry>
        </mxCell>
        <mxCell id="aWrdAXhFoA1oylewdkiY-55" value="Составить расписание " style="ellipse;whiteSpace=wrap;html=1;" vertex="1" parent="1">
          <mxGeometry x="610" y="560" width="150" height="60" as="geometry" />
        </mxCell>
        <mxCell id="aWrdAXhFoA1oylewdkiY-58" value="" style="endArrow=none;html=1;rounded=0;" edge="1" parent="1">
          <mxGeometry width="50" height="50" relative="1" as="geometry">
            <mxPoint x="380" y="550" as="sourcePoint" />
            <mxPoint x="440" y="490" as="targetPoint" />
          </mxGeometry>
        </mxCell>
        <mxCell id="aWrdAXhFoA1oylewdkiY-62" value="" style="endArrow=none;html=1;rounded=0;exitX=0.431;exitY=0.004;exitDx=0;exitDy=0;exitPerimeter=0;" edge="1" parent="1" source="aWrdAXhFoA1oylewdkiY-64">
          <mxGeometry width="50" height="50" relative="1" as="geometry">
            <mxPoint x="490" y="550" as="sourcePoint" />
            <mxPoint x="440" y="490" as="targetPoint" />
          </mxGeometry>
        </mxCell>
        <mxCell id="aWrdAXhFoA1oylewdkiY-63" value="Закупить товары" style="ellipse;whiteSpace=wrap;html=1;" vertex="1" parent="1">
          <mxGeometry x="304" y="550" width="116" height="60" as="geometry" />
        </mxCell>
        <mxCell id="aWrdAXhFoA1oylewdkiY-64" value="Инвентаризовать склад" style="ellipse;whiteSpace=wrap;html=1;" vertex="1" parent="1">
          <mxGeometry x="440" y="555" width="120" height="60" as="geometry" />
        </mxCell>
        <mxCell id="aWrdAXhFoA1oylewdkiY-66" value="" style="endArrow=classic;html=1;rounded=0;exitX=0.5;exitY=1;exitDx=0;exitDy=0;" edge="1" parent="1" source="aWrdAXhFoA1oylewdkiY-63">
          <mxGeometry width="50" height="50" relative="1" as="geometry">
            <mxPoint x="370" y="560" as="sourcePoint" />
            <mxPoint x="410" y="680" as="targetPoint" />
          </mxGeometry>
        </mxCell>
        <mxCell id="aWrdAXhFoA1oylewdkiY-67" value="" style="endArrow=classic;html=1;rounded=0;exitX=0.5;exitY=1;exitDx=0;exitDy=0;" edge="1" parent="1" source="aWrdAXhFoA1oylewdkiY-64">
          <mxGeometry width="50" height="50" relative="1" as="geometry">
            <mxPoint x="372" y="620" as="sourcePoint" />
            <mxPoint x="440" y="680" as="targetPoint" />
          </mxGeometry>
        </mxCell>
        <mxCell id="aWrdAXhFoA1oylewdkiY-68" value="Управление поставками" style="ellipse;whiteSpace=wrap;html=1;" vertex="1" parent="1">
          <mxGeometry x="360" y="680" width="130" height="80" as="geometry" />
        </mxCell>
      </root>
    </mxGraphModel>
  </diagram>
</mxfile>
